<?xml version="1.0" encoding="UTF-8"?>
<svg width="273px" height="39px" viewBox="0 0 273 39" version="1.1" xmlns="http://www.w3.org/2000/svg" xmlns:xlink="http://www.w3.org/1999/xlink">
    <!-- Generator: Sketch 47.1 (45422) - http://www.bohemiancoding.com/sketch -->
    <title>Adam HarrisTRY</title>
    <desc>Created with Sketch.</desc>
    <defs></defs>
    <g id="Page-1" stroke="none" stroke-width="1" fill="none" fill-rule="evenodd">
        <path d="M15.9636719,2.6 L19.3636719,2.6 L34.2636719,38 L30.5636719,38 L26.7136719,28.6 L7.96367187,28.6 L3.96367187,38 L0.513671875,38 L15.9636719,2.6 Z M17.5136719,6.2 L9.26367188,25.6 L25.5136719,25.6 L17.5136719,6.2 Z M58.7136719,33.95 L58.6136719,33.95 C58.1470029,34.750004 57.5636754,35.4416638 56.8636719,36.025 C56.1636684,36.6083363 55.4053426,37.0916648 54.5886719,37.475 C53.7720011,37.8583352 52.9136764,38.1416658 52.0136719,38.325 C51.1136674,38.5083343 50.2303429,38.6 49.3636719,38.6 C47.5969964,38.6 45.9636794,38.300003 44.4636719,37.7 C42.9636644,37.099997 41.6803439,36.2583388 40.6136719,35.175 C39.5469999,34.0916613 38.7136749,32.8083408 38.1136719,31.325 C37.5136689,29.8416592 37.2136719,28.2166755 37.2136719,26.45 C37.2136719,24.6833245 37.5136689,23.0583408 38.1136719,21.575 C38.7136749,20.0916592 39.5469999,18.8083387 40.6136719,17.725 C41.6803439,16.6416612 42.9636644,15.800003 44.4636719,15.2 C45.9636794,14.599997 47.5969964,14.3 49.3636719,14.3 C50.2303429,14.3 51.1136674,14.3916658 52.0136719,14.575 C52.9136764,14.7583342 53.7720011,15.0416647 54.5886719,15.425 C55.4053426,15.8083352 56.1636684,16.2916637 56.8636719,16.875 C57.5636754,17.4583363 58.1470029,18.149996 58.6136719,18.95 L58.7136719,18.95 L58.7136719,0.2 L61.7136719,0.2 L61.7136719,38 L58.7136719,38 L58.7136719,33.95 Z M59.0136719,26.45 C59.0136719,25.1499935 58.7636744,23.9250058 58.2636719,22.775 C57.7636694,21.6249942 57.0803429,20.6250042 56.2136719,19.775 C55.3470009,18.9249957 54.3303444,18.2500025 53.1636719,17.75 C51.9969994,17.2499975 50.7303454,17 49.3636719,17 C47.9636649,17 46.6970109,17.2499975 45.5636719,17.75 C44.4303329,18.2500025 43.4636759,18.9249957 42.6636719,19.775 C41.8636679,20.6250042 41.2553406,21.6249942 40.8386719,22.775 C40.4220031,23.9250058 40.2136719,25.1499935 40.2136719,26.45 C40.2136719,27.7500065 40.4220031,28.9749943 40.8386719,30.125 C41.2553406,31.2750057 41.8636679,32.2749958 42.6636719,33.125 C43.4636759,33.9750042 44.4303329,34.6499975 45.5636719,35.15 C46.6970109,35.6500025 47.9636649,35.9 49.3636719,35.9 C50.7303454,35.9 51.9969994,35.6500025 53.1636719,35.15 C54.3303444,34.6499975 55.3470009,33.9750042 56.2136719,33.125 C57.0803429,32.2749958 57.7636694,31.2750057 58.2636719,30.125 C58.7636744,28.9749943 59.0136719,27.7500065 59.0136719,26.45 Z M87.0136719,28.3 C87.0136719,29.433339 87.0220051,30.4499955 87.0386719,31.35 C87.0553386,32.2500045 87.0803384,33.0833295 87.1136719,33.85 C87.1470054,34.6166705 87.1886716,35.33333 87.2386719,36 C87.2886721,36.66667 87.3636714,37.33333 87.4636719,38 L84.6636719,38 C84.4636709,36.866661 84.3636719,35.6166735 84.3636719,34.25 L84.2636719,34.25 C83.3970009,35.7500075 82.3220116,36.8499965 81.0386719,37.55 C79.7553321,38.2500035 78.1303484,38.6 76.1636719,38.6 C75.1636669,38.6 74.1803434,38.4750012 73.2136719,38.225 C72.2470004,37.9749987 71.3803424,37.5750028 70.6136719,37.025 C69.8470014,36.4749973 69.2220076,35.766671 68.7386719,34.9 C68.2553361,34.033329 68.0136719,32.9833395 68.0136719,31.75 C68.0136719,29.9833245 68.4636674,28.5833385 69.3636719,27.55 C70.2636764,26.5166615 71.3719986,25.7416693 72.6886719,25.225 C74.0053451,24.7083308 75.4053311,24.3750007 76.8886719,24.225 C78.3720126,24.0749993 79.6803329,24 80.8136719,24 L84.3136719,24 L84.3136719,22.6 C84.3136719,20.59999 83.6970114,19.166671 82.4636719,18.3 C81.2303324,17.433329 79.6803479,17 77.8136719,17 C75.1469919,17 72.7970154,17.866658 70.7636719,19.6 L69.0136719,17.55 C70.1136774,16.483328 71.4803304,15.6750028 73.1136719,15.125 C74.7470134,14.5749972 76.3136644,14.3 77.8136719,14.3 C80.6136859,14.3 82.8469969,14.9583267 84.5136719,16.275 C86.1803469,17.5916732 87.0136719,19.716652 87.0136719,22.65 L87.0136719,28.3 Z M81.0136719,26.4 C79.7469989,26.4 78.5220111,26.4833325 77.3386719,26.65 C76.1553326,26.8166675 75.0886766,27.099998 74.1386719,27.5 C73.1886671,27.900002 72.4303414,28.43333 71.8636719,29.1 C71.2970024,29.76667 71.0136719,30.599995 71.0136719,31.6 C71.0136719,32.3000035 71.1720036,32.9249972 71.4886719,33.475 C71.8053401,34.0250027 72.2136694,34.4749982 72.7136719,34.825 C73.2136744,35.1750018 73.7720021,35.4416657 74.3886719,35.625 C75.0053416,35.8083343 75.6303354,35.9 76.2636719,35.9 C77.8636799,35.9 79.1803334,35.666669 80.2136719,35.2 C81.2470104,34.733331 82.0720021,34.1250038 82.6886719,33.375 C83.3053416,32.6249962 83.7303374,31.7750047 83.9636719,30.825 C84.1970064,29.8749952 84.3136719,28.9166715 84.3136719,27.95 L84.3136719,26.4 L81.0136719,26.4 Z M95.0136719,21.4 C95.0136719,20.9666645 94.9970054,20.4416698 94.9636719,19.825 C94.9303384,19.2083303 94.9053386,18.5833365 94.8886719,17.95 C94.8720051,17.3166635 94.8470054,16.7250027 94.8136719,16.175 C94.7803384,15.6249972 94.7636719,15.2000015 94.7636719,14.9 L97.7636719,14.9 C97.7970054,15.766671 97.8220051,16.599996 97.8386719,17.4 C97.8553386,18.200004 97.8970049,18.7166655 97.9636719,18.95 L98.1136719,18.95 C98.7136749,17.683327 99.7136649,16.5916712 101.113672,15.675 C102.513679,14.7583288 104.146996,14.3 106.013672,14.3 C107.547013,14.3 108.946999,14.6916627 110.213672,15.475 C111.480345,16.2583373 112.397002,17.5333245 112.963672,19.3 C113.697009,17.566658 114.788665,16.300004 116.238672,15.5 C117.688679,14.699996 119.213664,14.3 120.813672,14.3 C122.613681,14.3 124.080333,14.5833305 125.213672,15.15 C126.347011,15.7166695 127.238669,16.4583287 127.888672,17.375 C128.538675,18.2916713 128.988671,19.349994 129.238672,20.55 C129.488673,21.750006 129.613672,22.983327 129.613672,24.25 L129.613672,38 L126.613672,38 L126.613672,24.4 C126.613672,23.466662 126.530339,22.5583377 126.363672,21.675 C126.197004,20.7916623 125.905341,20.0000035 125.488672,19.3 C125.072003,18.5999965 124.488676,18.0416687 123.738672,17.625 C122.988668,17.2083313 122.013678,17 120.813672,17 C119.413665,17 118.263676,17.2583308 117.363672,17.775 C116.463667,18.2916692 115.755341,18.949996 115.238672,19.75 C114.722003,20.550004 114.35534,21.416662 114.138672,22.35 C113.922004,23.283338 113.813672,24.1666625 113.813672,25 L113.813672,38 L110.813672,38 L110.813672,24.1 C110.813672,21.966656 110.422009,20.2500065 109.638672,18.95 C108.855335,17.6499935 107.647013,17 106.013672,17 C104.913666,17 103.87201,17.1916648 102.888672,17.575 C101.905334,17.9583353 101.055342,18.5416628 100.338672,19.325 C99.6220016,20.1083373 99.0553406,21.0916607 98.6386719,22.275 C98.2220031,23.4583392 98.0136719,24.849992 98.0136719,26.45 L98.0136719,38 L95.0136719,38 L95.0136719,21.4 Z M151.463672,2.6 L154.763672,2.6 L154.763672,18.2 L174.563672,18.2 L174.563672,2.6 L177.863672,2.6 L177.863672,38 L174.563672,38 L174.563672,21.2 L154.763672,21.2 L154.763672,38 L151.463672,38 L151.463672,2.6 Z M204.663672,28.3 C204.663672,29.433339 204.672005,30.4499955 204.688672,31.35 C204.705339,32.2500045 204.730338,33.0833295 204.763672,33.85 C204.797005,34.6166705 204.838672,35.33333 204.888672,36 C204.938672,36.66667 205.013671,37.33333 205.113672,38 L202.313672,38 C202.113671,36.866661 202.013672,35.6166735 202.013672,34.25 L201.913672,34.25 C201.047001,35.7500075 199.972012,36.8499965 198.688672,37.55 C197.405332,38.2500035 195.780348,38.6 193.813672,38.6 C192.813667,38.6 191.830343,38.4750012 190.863672,38.225 C189.897,37.9749987 189.030342,37.5750028 188.263672,37.025 C187.497001,36.4749973 186.872008,35.766671 186.388672,34.9 C185.905336,34.033329 185.663672,32.9833395 185.663672,31.75 C185.663672,29.9833245 186.113667,28.5833385 187.013672,27.55 C187.913676,26.5166615 189.021999,25.7416693 190.338672,25.225 C191.655345,24.7083308 193.055331,24.3750007 194.538672,24.225 C196.022013,24.0749993 197.330333,24 198.463672,24 L201.963672,24 L201.963672,22.6 C201.963672,20.59999 201.347011,19.166671 200.113672,18.3 C198.880332,17.433329 197.330348,17 195.463672,17 C192.796992,17 190.447015,17.866658 188.413672,19.6 L186.663672,17.55 C187.763677,16.483328 189.13033,15.6750028 190.763672,15.125 C192.397013,14.5749972 193.963664,14.3 195.463672,14.3 C198.263686,14.3 200.496997,14.9583267 202.163672,16.275 C203.830347,17.5916732 204.663672,19.716652 204.663672,22.65 L204.663672,28.3 Z M198.663672,26.4 C197.396999,26.4 196.172011,26.4833325 194.988672,26.65 C193.805333,26.8166675 192.738677,27.099998 191.788672,27.5 C190.838667,27.900002 190.080341,28.43333 189.513672,29.1 C188.947002,29.76667 188.663672,30.599995 188.663672,31.6 C188.663672,32.3000035 188.822004,32.9249972 189.138672,33.475 C189.45534,34.0250027 189.863669,34.4749982 190.363672,34.825 C190.863674,35.1750018 191.422002,35.4416657 192.038672,35.625 C192.655342,35.8083343 193.280335,35.9 193.913672,35.9 C195.51368,35.9 196.830333,35.666669 197.863672,35.2 C198.89701,34.733331 199.722002,34.1250038 200.338672,33.375 C200.955342,32.6249962 201.380337,31.7750047 201.613672,30.825 C201.847006,29.8749952 201.963672,28.9166715 201.963672,27.95 L201.963672,26.4 L198.663672,26.4 Z M212.663672,21.4 C212.663672,20.9666645 212.647005,20.4416698 212.613672,19.825 C212.580338,19.2083303 212.555339,18.5833365 212.538672,17.95 C212.522005,17.3166635 212.497005,16.7250027 212.463672,16.175 C212.430338,15.6249972 212.413672,15.2000015 212.413672,14.9 L215.413672,14.9 C215.447005,15.766671 215.472005,16.599996 215.488672,17.4 C215.505339,18.200004 215.547005,18.7166655 215.613672,18.95 C216.380342,17.5833265 217.363666,16.466671 218.563672,15.6 C219.763678,14.733329 221.23033,14.3 222.963672,14.3 C223.263673,14.3 223.555337,14.3249997 223.838672,14.375 C224.122007,14.4250003 224.41367,14.483333 224.713672,14.55 L224.363672,17.5 C223.96367,17.366666 223.58034,17.3 223.213672,17.3 C221.913665,17.3 220.788677,17.5083313 219.838672,17.925 C218.888667,18.3416688 218.105342,18.916663 217.488672,19.65 C216.872002,20.383337 216.413673,21.2416617 216.113672,22.225 C215.81367,23.2083382 215.663672,24.266661 215.663672,25.4 L215.663672,38 L212.663672,38 L212.663672,21.4 Z M229.313672,21.4 C229.313672,20.9666645 229.297005,20.4416698 229.263672,19.825 C229.230338,19.2083303 229.205339,18.5833365 229.188672,17.95 C229.172005,17.3166635 229.147005,16.7250027 229.113672,16.175 C229.080338,15.6249972 229.063672,15.2000015 229.063672,14.9 L232.063672,14.9 C232.097005,15.766671 232.122005,16.599996 232.138672,17.4 C232.155339,18.200004 232.197005,18.7166655 232.263672,18.95 C233.030342,17.5833265 234.013666,16.466671 235.213672,15.6 C236.413678,14.733329 237.88033,14.3 239.613672,14.3 C239.913673,14.3 240.205337,14.3249997 240.488672,14.375 C240.772007,14.4250003 241.06367,14.483333 241.363672,14.55 L241.013672,17.5 C240.61367,17.366666 240.23034,17.3 239.863672,17.3 C238.563665,17.3 237.438677,17.5083313 236.488672,17.925 C235.538667,18.3416688 234.755342,18.916663 234.138672,19.65 C233.522002,20.383337 233.063673,21.2416617 232.763672,22.225 C232.46367,23.2083382 232.313672,24.266661 232.313672,25.4 L232.313672,38 L229.313672,38 L229.313672,21.4 Z M246.463672,14.9 L249.463672,14.9 L249.463672,38 L246.463672,38 L246.463672,14.9 Z M245.713672,5.75 C245.713672,5.1166635 245.930336,4.5833355 246.363672,4.15 C246.797007,3.7166645 247.330335,3.5 247.963672,3.5 C248.597008,3.5 249.130336,3.7166645 249.563672,4.15 C249.997007,4.5833355 250.213672,5.1166635 250.213672,5.75 C250.213672,6.3833365 249.997007,6.9166645 249.563672,7.35 C249.130336,7.7833355 248.597008,8 247.963672,8 C247.330335,8 246.797007,7.7833355 246.363672,7.35 C245.930336,6.9166645 245.713672,6.3833365 245.713672,5.75 Z M258.013672,32.1 C258.647008,33.3333395 259.580332,34.2749968 260.813672,34.925 C262.047011,35.5750033 263.346998,35.9 264.713672,35.9 C265.347008,35.9 265.980335,35.800001 266.613672,35.6 C267.247008,35.399999 267.813669,35.1166685 268.313672,34.75 C268.813674,34.3833315 269.222004,33.9416693 269.538672,33.425 C269.85534,32.9083308 270.013672,32.31667 270.013672,31.65 C270.013672,30.583328 269.672009,29.783336 268.988672,29.25 C268.305335,28.716664 267.463677,28.3000015 266.463672,28 C265.463667,27.6999985 264.363678,27.4416677 263.163672,27.225 C261.963666,27.0083322 260.863677,26.6750023 259.863672,26.225 C258.863667,25.7749978 258.022009,25.150004 257.338672,24.35 C256.655335,23.549996 256.313672,22.416674 256.313672,20.95 C256.313672,19.816661 256.547003,18.8333375 257.013672,18 C257.480341,17.1666625 258.088668,16.4750027 258.838672,15.925 C259.588676,15.3749972 260.430334,14.966668 261.363672,14.7 C262.29701,14.433332 263.247,14.3 264.213672,14.3 C266.113681,14.3 267.755332,14.6499965 269.138672,15.35 C270.522012,16.0500035 271.597001,17.1499925 272.363672,18.65 L269.663672,20.25 C269.097002,19.183328 268.388676,18.3750027 267.538672,17.825 C266.688668,17.2749973 265.580345,17 264.213672,17 C263.680336,17 263.122008,17.0833325 262.538672,17.25 C261.955336,17.4166675 261.430341,17.6499985 260.963672,17.95 C260.497003,18.2500015 260.10534,18.633331 259.788672,19.1 C259.472004,19.566669 259.313672,20.099997 259.313672,20.7 C259.313672,21.7333385 259.655335,22.4999975 260.338672,23 C261.022009,23.5000025 261.863667,23.8916653 262.863672,24.175 C263.863677,24.4583348 264.963666,24.699999 266.163672,24.9 C267.363678,25.100001 268.463667,25.4249977 269.463672,25.875 C270.463677,26.3250023 271.305335,26.9749958 271.988672,27.825 C272.672009,28.6750043 273.013672,29.8833255 273.013672,31.45 C273.013672,32.650006 272.788674,33.6916623 272.338672,34.575 C271.88867,35.4583377 271.272009,36.199997 270.488672,36.8 C269.705335,37.400003 268.813677,37.8499985 267.813672,38.15 C266.813667,38.4500015 265.763677,38.6 264.663672,38.6 C262.663662,38.6 260.83868,38.2166705 259.188672,37.45 C257.538664,36.6833295 256.263676,35.500008 255.363672,33.9 L258.013672,32.1 Z" id="Adam-Harris" fill="#000000"></path>
    </g>
</svg>